<svg width="17" height="19" viewBox="0 0 17 19" fill="none" xmlns="http://www.w3.org/2000/svg">
<path d="M0 7.02496C0 5.42187 -5.06639e-08 4.62117 0.4981 4.12307C0.9962 3.62497 1.7969 3.62497 3.4 3.62497H13.6C15.2031 3.62497 16.0038 3.62497 16.5019 4.12307C17 4.62117 17 5.42187 17 7.02496C17 7.42531 17 7.62591 16.8759 7.75086C16.7509 7.87496 16.5495 7.87496 16.15 7.87496H0.85C0.44965 7.87496 0.24905 7.87496 0.1241 7.75086C-7.59959e-08 7.62591 0 7.42446 0 7.02496Z" fill="#3179A6"/>
<path fill-rule="evenodd" clip-rule="evenodd" d="M0 14.675C0 16.2781 -5.06639e-08 17.0788 0.4981 17.5769C0.9962 18.075 1.7969 18.075 3.4 18.075H13.6C15.2031 18.075 16.0038 18.075 16.5019 17.5769C17 17.0788 17 16.2781 17 14.675V10.425C17 10.0247 17 9.82406 16.8759 9.69911C16.7509 9.57501 16.5495 9.57501 16.15 9.57501H0.85C0.44965 9.57501 0.24905 9.57501 0.1241 9.69911C-7.59959e-08 9.82406 0 10.0255 0 10.425V14.675ZM4.25 12.125C4.25 11.7247 4.25 11.5241 4.3741 11.3991C4.49905 11.275 4.7005 11.275 5.1 11.275H6.8C7.20035 11.275 7.40095 11.275 7.5259 11.3991C7.65 11.5241 7.65 11.7247 7.65 12.125C7.65 12.5254 7.65 12.726 7.5259 12.8509C7.40095 12.975 7.1995 12.975 6.8 12.975H5.1C4.69965 12.975 4.49905 12.975 4.3741 12.8509C4.25 12.726 4.25 12.5245 4.25 12.125ZM4.3741 14.7991C4.25 14.9241 4.25 15.1255 4.25 15.525C4.25 15.9245 4.25 16.126 4.3741 16.2509C4.49905 16.375 4.7005 16.375 5.1 16.375H6.8C7.20035 16.375 7.40095 16.375 7.5259 16.2509C7.65 16.126 7.65 15.9245 7.65 15.525C7.65 15.1255 7.65 14.9241 7.5259 14.7991C7.40095 14.675 7.1995 14.675 6.8 14.675H5.1C4.69965 14.675 4.49905 14.675 4.3741 14.7991ZM9.35 12.125C9.35 11.7247 9.35 11.5241 9.4741 11.3991C9.59905 11.275 9.8005 11.275 10.2 11.275H11.9C12.3004 11.275 12.501 11.275 12.6259 11.3991C12.75 11.5241 12.75 11.7247 12.75 12.125C12.75 12.5254 12.75 12.726 12.6259 12.8509C12.501 12.975 12.2995 12.975 11.9 12.975H10.2C9.79965 12.975 9.59905 12.975 9.4741 12.8509C9.35 12.726 9.35 12.5245 9.35 12.125ZM9.4741 14.7991C9.35 14.9241 9.35 15.1255 9.35 15.525C9.35 15.9245 9.35 16.126 9.4741 16.2509C9.59905 16.375 9.79965 16.375 10.2 16.375H11.9C12.3004 16.375 12.501 16.375 12.6259 16.2509C12.75 16.126 12.75 15.9245 12.75 15.525C12.75 15.1255 12.75 14.9241 12.6259 14.7991C12.501 14.675 12.2995 14.675 11.9 14.675H10.2C9.79965 14.675 9.59905 14.675 9.4741 14.7991Z" fill="#3179A6"/>
<path d="M4.25 1.92499V4.47498M12.75 1.92499V4.47498" stroke="#3179A6" stroke-width="2" stroke-linecap="round"/>
</svg>
