<svg width="43" height="40" viewBox="0 0 43 40" fill="none" xmlns="http://www.w3.org/2000/svg">
<path d="M40.4 0.533534C31.5012 -1.31394 23.705 2.14004 21.5 3.26459C19.295 2.14004 11.4988 -1.31394 2.6 0.533534C1.3925 0.77451 0.5 1.89906 0.5 3.18426V34.5111C0.5 35.2876 0.84125 36.0373 1.41875 36.546C2.0225 37.0547 2.83625 37.2689 3.62375 37.135C11.525 35.6892 18.4287 38.7683 20.345 39.7322C20.7125 39.9196 21.1063 40 21.5 40C21.8937 40 22.2875 39.9196 22.655 39.7322C24.5712 38.7683 31.475 35.6892 39.3763 37.135C40.1637 37.2689 40.9775 37.0547 41.5812 36.546C42.185 36.0373 42.5 35.3143 42.5 34.5111V3.18426C42.5 1.89906 41.6075 0.77451 40.4 0.533534ZM8.40125 7.36117C11.2625 7.41472 14.15 7.89668 17.0375 8.78025C17.4948 8.91612 17.8883 9.21647 18.145 9.62563C18.4018 10.0348 18.5044 10.525 18.4339 11.0055C18.3635 11.4859 18.1246 11.924 17.7616 12.2386C17.3987 12.5531 16.9362 12.7228 16.46 12.7162C16.2762 12.7162 16.0663 12.6894 15.8825 12.6359C13.3625 11.8326 10.8162 11.431 8.34875 11.3774C8.0902 11.3739 7.83486 11.3185 7.59731 11.2144C7.35976 11.1102 7.14465 10.9593 6.96427 10.7704C6.78389 10.5814 6.64177 10.3581 6.54602 10.1131C6.45027 9.86808 6.40278 9.60625 6.40625 9.34253C6.4325 8.21798 7.35125 7.41472 8.40125 7.36117ZM8.40125 15.3937C11.2625 15.4472 14.15 15.9292 17.0375 16.8128C17.4948 16.9486 17.8883 17.249 18.145 17.6581C18.4018 18.0673 18.5044 18.5575 18.4339 19.038C18.3635 19.5184 18.1246 19.9565 17.7616 20.2711C17.3987 20.5856 16.9362 20.7553 16.46 20.7487C16.2762 20.7487 16.0663 20.7219 15.8825 20.6684C13.3625 19.8651 10.8162 19.4635 8.34875 19.4099C8.09021 19.4064 7.83488 19.351 7.59734 19.2468C7.3598 19.1427 7.1447 18.9918 6.96432 18.8028C6.60003 18.4212 6.39929 17.9076 6.40625 17.375C6.41321 16.8425 6.62731 16.3345 7.00145 15.9629C7.37558 15.5913 7.87911 15.3866 8.40125 15.3937ZM18.35 27.3621C18.1926 27.8705 17.8459 28.2955 17.3845 28.5459C16.9231 28.7962 16.3837 28.8519 15.8825 28.7009C13.3625 27.9244 10.8162 27.496 8.34875 27.4425C7.82879 27.4285 7.33474 27.208 6.97189 26.8279C6.60903 26.4477 6.40607 25.9381 6.40625 25.4076C6.4325 24.3098 7.35125 23.4262 8.40125 23.4262C11.2625 23.4798 14.15 23.9617 17.0375 24.8453C18.0613 25.1666 18.665 26.2911 18.35 27.3621ZM34.8613 27.4425C32.3675 27.496 29.8475 27.8976 27.3275 28.7009C26.8263 28.8519 26.2869 28.7962 25.8255 28.5459C25.3641 28.2955 25.0174 27.8705 24.86 27.3621C24.545 26.2911 25.1225 25.1666 26.1725 24.8453C29.0337 23.9617 31.9475 23.4798 34.7825 23.4262H34.8088C35.885 23.4262 36.7512 24.3098 36.7775 25.4076C36.83 26.5053 35.9637 27.4157 34.8613 27.4425ZM34.8613 19.4099C32.3938 19.4635 29.8475 19.8651 27.3275 20.6684C26.8263 20.8194 26.2869 20.7637 25.8255 20.5134C25.3641 20.263 25.0174 19.838 24.86 19.3296C24.545 18.2586 25.1225 17.1608 26.1725 16.8128C29.06 15.9292 31.9475 15.4472 34.7825 15.3937H34.8088C35.885 15.3937 36.7512 16.2773 36.7775 17.375C36.83 18.4728 35.9637 19.3832 34.8613 19.4099ZM34.8613 11.3774C32.3938 11.431 29.8475 11.8326 27.3275 12.6359C26.8263 12.7869 26.2869 12.7312 25.8255 12.4809C25.3641 12.2305 25.0174 11.8055 24.86 11.2971C24.545 10.2261 25.1225 9.12833 26.1725 8.78025C29.06 7.89668 31.9475 7.41472 34.7825 7.36117H34.8088C35.885 7.36117 36.7512 8.24475 36.7775 9.34253C36.83 10.4403 35.9637 11.3507 34.8613 11.3774Z" fill="#3179A6"/>
</svg>
