<svg width="40" height="40" viewBox="0 0 40 40" fill="none" xmlns="http://www.w3.org/2000/svg">
<rect width="40" height="40" rx="4" fill="#3179A6"/>
<path d="M28 19.9995H17.3146M13.5429 19.9995H12M13.5429 19.9995C13.5429 19.4732 13.7416 18.9684 14.0951 18.5962C14.4487 18.224 14.9283 18.0149 15.4283 18.0149C15.9284 18.0149 16.4079 18.224 16.7615 18.5962C17.1151 18.9684 17.3137 19.4732 17.3137 19.9995C17.3137 20.5259 17.1151 21.0307 16.7615 21.4029C16.4079 21.7751 15.9284 21.9842 15.4283 21.9842C14.9283 21.9842 14.4487 21.7751 14.0951 21.4029C13.7416 21.0307 13.5429 20.5259 13.5429 19.9995ZM28 26.0145H23.0288M23.0288 26.0145C23.0288 26.5409 22.8296 27.0463 22.476 27.4186C22.1223 27.7909 21.6426 28 21.1425 28C20.6424 28 20.1629 27.79 19.8093 27.4178C19.4557 27.0456 19.2571 26.5408 19.2571 26.0145M23.0288 26.0145C23.0288 25.488 22.8296 24.9835 22.476 24.6112C22.1223 24.239 21.6426 24.0298 21.1425 24.0298C20.6424 24.0298 20.1629 24.2389 19.8093 24.6111C19.4557 24.9833 19.2571 25.4881 19.2571 26.0145M19.2571 26.0145H12M28 13.9846H25.3146M21.5429 13.9846H12M21.5429 13.9846C21.5429 13.4583 21.7416 12.9535 22.0951 12.5813C22.4487 12.2091 22.9283 12 23.4283 12C23.6759 12 23.9211 12.0513 24.1498 12.1511C24.3786 12.2508 24.5864 12.397 24.7615 12.5813C24.9366 12.7656 25.0755 12.9844 25.1702 13.2251C25.265 13.4659 25.3137 13.724 25.3137 13.9846C25.3137 14.2453 25.265 14.5033 25.1702 14.7441C25.0755 14.9849 24.9366 15.2037 24.7615 15.388C24.5864 15.5723 24.3786 15.7185 24.1498 15.8182C23.9211 15.9179 23.6759 15.9693 23.4283 15.9693C22.9283 15.9693 22.4487 15.7602 22.0951 15.388C21.7416 15.0158 21.5429 14.511 21.5429 13.9846Z" stroke="white" stroke-width="1.5" stroke-miterlimit="10" stroke-linecap="round"/>
</svg>
