<svg width="18" height="21" viewBox="0 0 18 21" fill="none" xmlns="http://www.w3.org/2000/svg">
<path d="M9 0.0930023C11.3869 0.0930023 13.6761 1.04121 15.364 2.72904C17.0518 4.41687 18 6.70605 18 9.093C18 12.167 16.324 14.683 14.558 16.488C13.6757 17.3801 12.7129 18.1888 11.682 18.904L11.256 19.194L11.056 19.327L10.679 19.567L10.343 19.772L9.927 20.014C9.64463 20.1752 9.32513 20.2599 9 20.2599C8.67487 20.2599 8.35537 20.1752 8.073 20.014L7.657 19.772L7.137 19.452L6.945 19.327L6.535 19.054C5.42283 18.3015 4.3869 17.4421 3.442 16.488C1.676 14.682 0 12.167 0 9.093C0 6.70605 0.948211 4.41687 2.63604 2.72904C4.32387 1.04121 6.61305 0.0930023 9 0.0930023ZM9 6.093C8.60603 6.093 8.21593 6.1706 7.85195 6.32136C7.48797 6.47213 7.15726 6.69311 6.87868 6.97168C6.6001 7.25026 6.37913 7.58098 6.22836 7.94495C6.0776 8.30893 6 8.69904 6 9.093C6 9.48697 6.0776 9.87708 6.22836 10.2411C6.37913 10.605 6.6001 10.9357 6.87868 11.2143C7.15726 11.4929 7.48797 11.7139 7.85195 11.8646C8.21593 12.0154 8.60603 12.093 9 12.093C9.79565 12.093 10.5587 11.7769 11.1213 11.2143C11.6839 10.6517 12 9.88865 12 9.093C12 8.29735 11.6839 7.53429 11.1213 6.97168C10.5587 6.40907 9.79565 6.093 9 6.093Z" fill="#3179A6"/>
</svg>
