<svg width="41" height="40" viewBox="0 0 41 40" fill="none" xmlns="http://www.w3.org/2000/svg">
<path d="M24.0703 26C24.637 26 25.129 25.792 25.5463 25.376C25.9636 24.96 26.1716 24.468 26.1703 23.9C26.169 23.332 25.961 22.8406 25.5463 22.426C25.1316 22.0113 24.6396 21.8026 24.0703 21.8C23.501 21.7973 23.0096 22.006 22.5963 22.426C22.183 22.846 21.9743 23.3373 21.9703 23.9C21.9663 24.4626 22.175 24.9546 22.5963 25.376C23.0176 25.7973 23.509 26.0053 24.0703 26ZM24.0703 19.6C24.437 19.6 24.779 19.4666 25.0963 19.2C25.4136 18.9333 25.605 18.5833 25.6703 18.15C25.737 17.75 25.8783 17.3833 26.0943 17.05C26.3103 16.7166 26.7023 16.2666 27.2703 15.7C28.2703 14.7 28.937 13.8913 29.2703 13.274C29.6036 12.6566 29.7703 11.932 29.7703 11.1C29.7703 9.59996 29.245 8.37463 28.1943 7.42396C27.1436 6.4733 25.769 5.99863 24.0703 5.99997C22.9703 5.99997 21.9703 6.24997 21.0703 6.74997C20.1703 7.24996 19.4536 7.96663 18.9203 8.89996C18.7203 9.2333 18.7036 9.5833 18.8703 9.94996C19.037 10.3166 19.3203 10.5833 19.7203 10.75C20.087 10.9166 20.4456 10.9333 20.7963 10.8C21.147 10.6666 21.4383 10.4333 21.6703 10.1C21.9703 9.66663 22.3203 9.34196 22.7203 9.12596C23.1203 8.90996 23.5703 8.8013 24.0703 8.79996C24.8703 8.79996 25.5203 9.0253 26.0203 9.47596C26.5203 9.92663 26.7703 10.5346 26.7703 11.3C26.7703 11.7666 26.637 12.2086 26.3703 12.626C26.1036 13.0433 25.637 13.568 24.9703 14.2C24.0036 15.0333 23.387 15.6753 23.1203 16.126C22.8536 16.5766 22.687 17.2346 22.6203 18.1C22.587 18.5 22.7123 18.85 22.9963 19.15C23.2803 19.45 23.6383 19.6 24.0703 19.6ZM12.0703 31.9999C10.9703 31.9999 10.029 31.6086 9.24631 30.8259C8.46364 30.0433 8.07164 29.1013 8.07031 28V3.99997C8.07031 2.89997 8.46231 1.95863 9.24631 1.17597C10.0303 0.393303 10.9716 0.00130281 12.0703 -3.05176e-05H36.0703C37.1703 -3.05176e-05 38.1123 0.391969 38.8963 1.17597C39.6803 1.95997 40.0716 2.9013 40.0703 3.99997V28C40.0703 29.1 39.679 30.042 38.8963 30.8259C38.1136 31.6099 37.1716 32.0013 36.0703 31.9999H12.0703ZM4.07031 39.9999C2.97031 39.9999 2.02898 39.6086 1.24631 38.8259C0.463646 38.0433 0.0716458 37.1013 0.0703125 35.9999V9.99996C0.0703125 9.4333 0.262313 8.95863 0.646312 8.57596C1.03031 8.1933 1.50498 8.0013 2.07031 7.99996C2.63564 7.99863 3.11098 8.19063 3.49631 8.57596C3.88164 8.9613 4.07298 9.43596 4.07031 9.99996V35.9999H30.0703C30.637 35.9999 31.1123 36.1919 31.4963 36.5759C31.8803 36.9599 32.0716 37.4346 32.0703 37.9999C32.069 38.5653 31.877 39.0406 31.4943 39.4259C31.1116 39.8113 30.637 40.0026 30.0703 39.9999H4.07031Z" fill="#3179A6"/>
</svg>
