<svg width="33" height="40" viewBox="0 0 33 40" fill="none" xmlns="http://www.w3.org/2000/svg">
<path d="M11.9285 14.5996L9.35706 19.9996H14.4999L11.9285 14.5996Z" fill="#3179A6"/>
<path fill-rule="evenodd" clip-rule="evenodd" d="M32.5 11L21.0714 -3.05176e-05H5.07143C3.85901 -3.05176e-05 2.69625 0.421397 1.83894 1.17154C0.981631 1.92169 0.5 2.9391 0.5 3.99997V36C0.5 37.0608 0.981631 38.0783 1.83894 38.8284C2.69625 39.5785 3.85901 40 5.07143 40H27.9286C29.141 40 30.3038 39.5785 31.1611 38.8284C32.0184 38.0783 32.5 37.0608 32.5 36V11ZM11.9286 11C12.1541 11 12.3747 11.0583 12.5624 11.1678C12.7501 11.2772 12.8966 11.4328 12.9834 11.615L18.6977 23.615C18.8144 23.8598 18.8152 24.1351 18.6999 24.3804C18.5846 24.6257 18.3626 24.8209 18.0829 24.923C17.8031 25.0251 17.4884 25.0258 17.2081 24.9249C16.9277 24.824 16.7047 24.6298 16.588 24.385L15.452 22H8.40514L7.26914 24.385C7.15245 24.6298 6.9294 24.824 6.64906 24.9249C6.36872 25.0258 6.05405 25.0251 5.77429 24.923C5.49452 24.8209 5.27257 24.6257 5.15726 24.3804C5.04195 24.1351 5.04273 23.8598 5.15943 23.615L10.8737 11.615C10.9606 11.4328 11.1071 11.2772 11.2948 11.1678C11.4825 11.0583 11.703 11 11.9286 11ZM6.21429 28C5.91118 28 5.62049 28.1053 5.40616 28.2929C5.19184 28.4804 5.07143 28.7348 5.07143 29C5.07143 29.2652 5.19184 29.5195 5.40616 29.7071C5.62049 29.8946 5.91118 30 6.21429 30H26.7857C27.0888 30 27.3795 29.8946 27.5938 29.7071C27.8082 29.5195 27.9286 29.2652 27.9286 29C27.9286 28.7348 27.8082 28.4804 27.5938 28.2929C27.3795 28.1053 27.0888 28 26.7857 28H6.21429ZM5.07143 33C5.07143 32.7348 5.19184 32.4804 5.40616 32.2929C5.62049 32.1053 5.91118 32 6.21429 32H19.9286C20.2317 32 20.5224 32.1053 20.7367 32.2929C20.951 32.4804 21.0714 32.7348 21.0714 33C21.0714 33.2652 20.951 33.5195 20.7367 33.7071C20.5224 33.8946 20.2317 34 19.9286 34H6.21429C5.91118 34 5.62049 33.8946 5.40616 33.7071C5.19184 33.5195 5.07143 33.2652 5.07143 33ZM24.5 18C24.5 17.7348 24.3796 17.4804 24.1653 17.2929C23.9509 17.1053 23.6602 17 23.3571 17C23.054 17 22.7633 17.1053 22.549 17.2929C22.3347 17.4804 22.2143 17.7348 22.2143 18V20H19.9286C19.6255 20 19.3348 20.1053 19.1204 20.2929C18.9061 20.4804 18.7857 20.7348 18.7857 21C18.7857 21.2652 18.9061 21.5195 19.1204 21.7071C19.3348 21.8946 19.6255 22 19.9286 22H22.2143V24C22.2143 24.2652 22.3347 24.5195 22.549 24.7071C22.7633 24.8946 23.054 25 23.3571 25C23.6602 25 23.9509 24.8946 24.1653 24.7071C24.3796 24.5195 24.5 24.2652 24.5 24V22H26.7857C27.0888 22 27.3795 21.8946 27.5938 21.7071C27.8082 21.5195 27.9286 21.2652 27.9286 21C27.9286 20.7348 27.8082 20.4804 27.5938 20.2929C27.3795 20.1053 27.0888 20 26.7857 20H24.5V18ZM21.0714 2.99997L29.0714 11H22.2143C21.9112 11 21.6205 10.8946 21.4062 10.7071C21.1918 10.5195 21.0714 10.2652 21.0714 9.99997V2.99997Z" fill="#3179A6"/>
<path fill-rule="evenodd" clip-rule="evenodd" d="M18.6977 23.614C18.7305 23.6833 18.7541 23.754 18.7686 23.824C18.2439 23.6588 17.7731 23.3842 17.3971 23.024C17.3316 23.036 17.2669 23.0536 17.2029 23.077C16.9236 23.1791 16.7021 23.3739 16.5868 23.6187C16.4716 23.8636 16.472 24.1384 16.588 24.383L15.452 22H8.40514L7.26914 24.384C7.14955 24.6248 6.92649 24.8148 6.64815 24.913C6.3698 25.0111 6.0585 25.0095 5.78148 24.9086C5.50446 24.8076 5.28394 24.6153 5.16756 24.3733C5.05117 24.1312 5.04825 23.8589 5.15943 23.615L6.29429 21.231L10.8737 11.615C10.9605 11.4328 11.107 11.2771 11.2947 11.1677C11.4824 11.0582 11.703 10.9998 11.9286 10.9998C12.1542 10.9998 12.3747 11.0582 12.5624 11.1677C12.7501 11.2771 12.8966 11.4328 12.9834 11.615L14.0383 13.829V13.831L16.6097 19.231L18.6977 23.614ZM18.6097 18.23L15.0931 10.846C14.8327 10.2994 14.3933 9.83248 13.8301 9.50405C13.267 9.17562 12.6053 9.00037 11.9286 9.00037C11.2518 9.00037 10.5902 9.17562 10.027 9.50405C9.46388 9.83248 9.02442 10.2994 8.764 10.846L3.04971 22.846C2.88553 23.1898 2.79601 23.5574 2.78571 23.93V3.99997C2.78571 3.46954 3.02653 2.96083 3.45519 2.58576C3.88384 2.21068 4.46522 1.99997 5.07143 1.99997H19.092C18.8954 2.29797 18.7857 2.63997 18.7857 2.99997V9.99997C18.7857 10.7956 19.1469 11.5587 19.7899 12.1213C20.4329 12.6839 21.305 13 22.2143 13H29.0714C29.4727 13 29.8668 12.9075 30.2143 12.732V21C30.2143 20.2043 29.8531 19.4413 29.2101 18.8786C28.5671 18.316 27.695 18 26.7857 18C26.7857 17.2043 26.4245 16.4413 25.7815 15.8786C25.1385 15.316 24.2665 15 23.3571 15C22.4478 15 21.5758 15.316 20.9328 15.8786C20.2898 16.4413 19.9286 17.2043 19.9286 18C19.4759 17.9997 19.0277 18.0779 18.6097 18.23ZM19.4897 20.077C19.2459 20.1659 19.0449 20.3259 18.9208 20.5299C18.7966 20.7339 18.757 20.9692 18.8088 21.1958C18.8605 21.4224 19.0003 21.6264 19.2044 21.773C19.4086 21.9196 19.6645 21.9998 19.9286 22H22.2143V24C22.2143 24.2652 22.3347 24.5195 22.549 24.7071C22.7633 24.8946 23.054 25 23.3571 25C23.6602 25 23.9509 24.8946 24.1653 24.7071C24.3796 24.5195 24.5 24.2652 24.5 24V22H26.7857C27.0888 22 27.3795 21.8946 27.5938 21.7071C27.8082 21.5195 27.9286 21.2652 27.9286 21C27.9286 20.7348 27.8082 20.4804 27.5938 20.2929C27.3795 20.1053 27.0888 20 26.7857 20H24.5V18C24.5 17.7348 24.3796 17.4804 24.1653 17.2929C23.9509 17.1053 23.6602 17 23.3571 17C23.054 17 22.7633 17.1053 22.549 17.2929C22.3347 17.4804 22.2143 17.7348 22.2143 18V20H19.9286C19.7775 19.9999 19.6291 20.0261 19.4897 20.077ZM20.4989 25.659C20.5903 25.779 20.6909 25.8926 20.8006 26H20.1983C20.308 25.892 20.4082 25.7783 20.4989 25.659ZM14.476 25.154C14.6291 25.473 14.836 25.756 15.0851 26L14.476 25.154ZM15.0851 26H8.76971C9.01886 25.756 9.22686 25.473 9.37771 25.154L9.92857 24H13.9286L14.476 25.154M4.31714 26.5C3.85665 26.2325 3.4769 25.8715 3.21024 25.4479C2.94359 25.0243 2.79794 24.5505 2.78571 24.067V29C2.78571 27.957 3.39486 27.037 4.31714 26.5ZM3.65886 31.001C3.09659 30.451 2.78574 29.7379 2.78571 29V33C2.78571 32.232 3.11714 31.532 3.65886 31.001ZM25.9126 26.001C26.4554 25.471 26.7857 24.769 26.7857 24.001C27.695 24.001 28.5671 23.6849 29.2101 23.1223C29.8531 22.5597 30.2143 21.7956 30.2143 21V29.001C30.2143 28.2053 29.8531 27.4423 29.2101 26.8796C28.5671 26.317 27.695 26.001 26.7857 26.001H25.9126ZM23.1617 32.001H26.7857C27.695 32.001 28.5671 31.6849 29.2101 31.1223C29.8531 30.5597 30.2143 29.7966 30.2143 29.001V36.001C30.2143 36.5314 29.9735 37.0401 29.5448 37.4152C29.1162 37.7903 28.5348 38.001 27.9286 38.001H5.07143C4.46522 38.001 3.88384 37.7903 3.45519 37.4152C3.02653 37.0401 2.78571 36.5314 2.78571 36.001V33.002C2.78632 33.7973 3.14781 34.5598 3.79073 35.122C4.43364 35.6842 5.30537 36 6.21429 36H19.9286C20.4772 36.0002 21.0179 35.8853 21.5053 35.6647C21.9926 35.4442 22.4124 35.1246 22.7293 34.7327C23.0462 34.3408 23.2509 33.888 23.3264 33.4125C23.4018 32.937 23.3457 32.4526 23.1629 32M19.9331 30H26.7857C27.0888 30 27.3795 29.8946 27.5938 29.7071C27.8082 29.5195 27.9286 29.2652 27.9286 29C27.9286 28.7348 27.8082 28.4804 27.5938 28.2929C27.3795 28.1053 27.0888 28 26.7857 28H6.21429C5.91118 28 5.62049 28.1053 5.40616 28.2929C5.19184 28.4804 5.07143 28.7348 5.07143 29C5.07143 29.2652 5.19184 29.5195 5.40616 29.7071C5.62049 29.8946 5.91118 30 6.21429 30H19.9331ZM32.5 11V36C32.5 37.0608 32.0184 38.0783 31.1611 38.8284C30.3038 39.5785 29.141 40 27.9286 40H5.07143C3.85901 40 2.69625 39.5785 1.83894 38.8284C0.981631 38.0783 0.5 37.0608 0.5 36V3.99997C0.5 2.9391 0.981631 1.92169 1.83894 1.17154C2.69625 0.421397 3.85901 -3.05176e-05 5.07143 -3.05176e-05H21.0714L32.5 11ZM21.0714 2.99997L29.0714 11H22.2143C21.9112 11 21.6205 10.8946 21.4062 10.7071C21.1918 10.5195 21.0714 10.2652 21.0714 9.99997V2.99997ZM14.5 20H9.35714L11.9286 14.6L14.5 20ZM6.21429 32C5.91118 32 5.62049 32.1053 5.40616 32.2929C5.19184 32.4804 5.07143 32.7348 5.07143 33C5.07143 33.2652 5.19184 33.5195 5.40616 33.7071C5.62049 33.8946 5.91118 34 6.21429 34H19.9286C20.2317 34 20.5224 33.8946 20.7367 33.7071C20.951 33.5195 21.0714 33.2652 21.0714 33C21.0714 32.7348 20.951 32.4804 20.7367 32.2929C20.5224 32.1053 20.2317 32 19.9286 32H6.21429Z" fill="#3179A6"/>
</svg>
